<svg xmlns="http://www.w3.org/2000/svg" xmlns:xlink="http://www.w3.org/1999/xlink" version="1.1" x="0px" y="0px" viewBox="0 0 100 125" style="enable-background:new 0 0 100 100;" xml:space="preserve"><g><circle cx="32.9" cy="31.1" r="2.4"/><circle cx="45.1" cy="31.1" r="2.4"/><circle cx="57.3" cy="31.1" r="2.4"/><circle cx="69.5" cy="31.1" r="2.4"/><circle cx="32.9" cy="38.4" r="2.4"/><circle cx="45.1" cy="38.4" r="2.4"/><circle cx="57.3" cy="38.4" r="2.4"/><circle cx="69.5" cy="38.4" r="2.4"/><path d="M67.6,54.9c-2.7,0-4.9,2.2-4.9,4.9c0,2.7,2.2,4.9,4.9,4.9c2.7,0,4.9-2.2,4.9-4.9C72.5,57.1,70.3,54.9,67.6,54.9z    M67.6,62.2c-1.3,0-2.4-1.1-2.4-2.4c0-1.3,1.1-2.4,2.4-2.4c1.3,0,2.4,1.1,2.4,2.4C70.1,61.1,69,62.2,67.6,62.2z"/><path d="M67.6,69.5c-2.7,0-4.9,2.2-4.9,4.9s2.2,4.9,4.9,4.9c2.7,0,4.9-2.2,4.9-4.9S70.3,69.5,67.6,69.5z M67.6,76.8   c-1.3,0-2.4-1.1-2.4-2.4s1.1-2.4,2.4-2.4c1.3,0,2.4,1.1,2.4,2.4S69,76.8,67.6,76.8z"/><path d="M86.6,0H13.4C6,0,0,6,0,13.4v73.2C0,94,6,100,13.4,100h73.2c7.4,0,13.4-6,13.4-13.4V13.4C100,6,94,0,86.6,0z M97.6,86.6   c0,6.1-4.9,11-11,11H13.4c-6.1,0-11-4.9-11-11V13.4c0-6.1,4.9-11,11-11h73.2c6.1,0,11,4.9,11,11V86.6z"/><path d="M80.5,11h-61c-4.7,0-8.5,3.8-8.5,8.5v61c0,4.7,3.8,8.5,8.5,8.5h61c4.7,0,8.5-3.8,8.5-8.5v-61C89,14.8,85.2,11,80.5,11z    M86.6,80.5c0,3.4-2.7,6.1-6.1,6.1h-61c-3.4,0-6.1-2.7-6.1-6.1v-61c0-3.4,2.7-6.1,6.1-6.1h61c3.4,0,6.1,2.7,6.1,6.1V80.5z"/><path d="M78.6,22H23.2c-0.7,0-1.2,0.5-1.2,1.2v23.2c0,0.7,0.5,1.2,1.2,1.2h55.4c0.7,0,1.2-0.5,1.2-1.2V23.2   C79.8,22.5,79.3,22,78.6,22z M77.4,45.1h-53V24.4h53V45.1z"/><path d="M47.6,72H28c-0.7,0-1.2,0.5-1.2,1.2s0.5,1.2,1.2,1.2h19.5c0.7,0,1.2-0.5,1.2-1.2S48.2,72,47.6,72z"/><path d="M47.6,76.8H28c-0.7,0-1.2,0.5-1.2,1.2s0.5,1.2,1.2,1.2h19.5c0.7,0,1.2-0.5,1.2-1.2S48.2,76.8,47.6,76.8z"/><path d="M28,67.1c0.7,0,1.2-0.5,1.2-1.2v-9.8c0-0.7-0.5-1.2-1.2-1.2c-0.7,0-1.2,0.5-1.2,1.2v9.8C26.8,66.5,27.4,67.1,28,67.1z"/><path d="M35.7,65.9v-9.8c0-0.7-0.5-1.2-1.2-1.2c-0.7,0-1.2,0.5-1.2,1.2v9.8c0,0.7,0.5,1.2,1.2,1.2C35.2,67.1,35.7,66.5,35.7,65.9z"/><path d="M42.1,65.9v-9.8c0-0.7-0.5-1.2-1.2-1.2c-0.7,0-1.2,0.5-1.2,1.2v9.8c0,0.7,0.5,1.2,1.2,1.2C41.6,67.1,42.1,66.5,42.1,65.9z"/><path d="M48.6,65.9v-9.8c0-0.7-0.5-1.2-1.2-1.2c-0.7,0-1.2,0.5-1.2,1.2v9.8c0,0.7,0.5,1.2,1.2,1.2C48,67.1,48.6,66.5,48.6,65.9z"/><path d="M53.8,54.9c-0.7,0-1.2,0.5-1.2,1.2v9.8c0,0.7,0.5,1.2,1.2,1.2s1.2-0.5,1.2-1.2v-9.8C55,55.4,54.4,54.9,53.8,54.9z"/></g><text x="0" y="115" fill="#000000" font-size="5px" font-weight="bold" font-family="'Helvetica Neue', Helvetica, Arial-Unicode, Arial, Sans-serif">Created by Stepan Voevodin</text><text x="0" y="120" fill="#000000" font-size="5px" font-weight="bold" font-family="'Helvetica Neue', Helvetica, Arial-Unicode, Arial, Sans-serif">from the Noun Project</text></svg>