<svg xmlns="http://www.w3.org/2000/svg" xmlns:xlink="http://www.w3.org/1999/xlink" version="1.1" x="0px" y="0px" viewBox="0 0 100 125" style="enable-background:new 0 0 100 100;" xml:space="preserve"><g><path d="M23.2,34.3h19.5c4.7,0,8.5-3.8,8.5-8.5v-4.9c0-4.7-3.8-8.5-8.5-8.5H23.2c-4.7,0-8.5,3.8-8.5,8.5v4.9   C14.6,30.5,18.5,34.3,23.2,34.3z M41.4,31.5c-1.7,0-3-1.4-3-3c0-1.1,1.5-4.2,3-6.9c1.5,2.6,3,5.8,3,6.9   C44.4,30.2,43,31.5,41.4,31.5z M32.9,31.5c-1.7,0-3-1.4-3-3c0-1.1,1.5-4.2,3-6.9c1.5,2.6,3,5.8,3,6.9   C35.9,30.2,34.6,31.5,32.9,31.5z M24.5,31.5c-1.7,0-3-1.4-3-3c0-1.1,1.5-4.2,3-6.9c1.5,2.6,3,5.8,3,6.9   C27.5,30.2,26.1,31.5,24.5,31.5z M17.1,20.9c0-3.4,2.7-6.1,6.1-6.1h19.5c3.4,0,6.1,2.7,6.1,6.1v4.9c0,1.9-0.9,3.6-2.3,4.8   c0.2-0.6,0.4-1.3,0.4-2c0-2.5-3.7-8.7-4.4-9.9c-0.4-0.7-1.6-0.7-2.1,0c-0.5,0.8-2,3.4-3.2,6c-1.1-2.5-2.7-5.2-3.2-6   c-0.4-0.7-1.6-0.7-2.1,0c-0.5,0.8-2,3.4-3.2,6c-1.1-2.5-2.7-5.2-3.2-6c-0.4-0.7-1.6-0.7-2.1,0C22.7,19.8,19,26,19,28.5   c0,0.7,0.1,1.4,0.4,2c-1.4-1.1-2.3-2.8-2.3-4.8V20.9z"/><path d="M21.7,63.4c3.4,0,6.1-2.7,6.1-6.1s-2.7-6.1-6.1-6.1s-6.1,2.7-6.1,6.1S18.3,63.4,21.7,63.4z M21.7,53.7c2,0,3.7,1.6,3.7,3.7   c0,2-1.6,3.7-3.7,3.7S18,59.3,18,57.3C18,55.3,19.7,53.7,21.7,53.7z"/><path d="M43.7,63.4c3.4,0,6.1-2.7,6.1-6.1s-2.7-6.1-6.1-6.1s-6.1,2.7-6.1,6.1S40.3,63.4,43.7,63.4z M43.7,53.7c2,0,3.7,1.6,3.7,3.7   c0,2-1.6,3.7-3.7,3.7S40,59.3,40,57.3C40,55.3,41.6,53.7,43.7,53.7z"/><path d="M32.9,52.4c2.7,0,4.9-2.2,4.9-4.9c0-2.7-2.2-4.9-4.9-4.9S28,44.9,28,47.6C28,50.3,30.2,52.4,32.9,52.4z M32.9,45.1   c1.3,0,2.4,1.1,2.4,2.4c0,1.3-1.1,2.4-2.4,2.4c-1.3,0-2.4-1.1-2.4-2.4C30.5,46.2,31.6,45.1,32.9,45.1z"/><path d="M98.8,14.5c-0.7,0-1.2,0.5-1.2,1.2v70.8c0,6.1-4.9,11-11,11H30.2c-2.5,0-4.5-2-4.5-4.5V87h2c0.7,0,1.2-0.5,1.2-1.2v-7.2h6   v7.2c0,0.7,0.5,1.2,1.2,1.2H38c0.6,3.2,3.4,5.7,6.8,5.7h29.6c4.7,0,8.5-3.8,8.5-8.5V6c0-0.7-0.5-1.2-1.2-1.2   c-0.7,0-1.2,0.5-1.2,1.2v78.2c0,3.4-2.7,6.1-6.1,6.1H44.8c-2,0-3.7-1.4-4.3-3.3h1.9c0.7,0,1.2-0.5,1.2-1.2v-7.2h8.8   c7.4,0,13.4-6,13.4-13.4V13.4C65.9,6,59.8,0,52.4,0h-39C6,0,0,6,0,13.4v51.7c0,7.4,6,13.4,13.4,13.4h6.7v7.2c0,0.7,0.5,1.2,1.2,1.2   h2v6.1c0,3.8,3.1,6.9,6.9,6.9h56.4c7.4,0,13.4-6,13.4-13.4V15.8C100,15.1,99.5,14.5,98.8,14.5z M41.2,84.6h-3.9v-6h3.9V84.6z    M2.4,65.1V13.4c0-6.1,4.9-11,11-11h39c6.1,0,11,4.9,11,11v51.7c0,6.1-4.9,11-11,11h-10h-6.3h-8.5h-6.3h-7.9   C7.4,76.1,2.4,71.2,2.4,65.1z M22.5,78.5h3.9v6h-3.9V78.5z"/><path d="M58.5,67V40.5c0-0.7-0.5-1.2-1.2-1.2H8.5c-0.7,0-1.2,0.5-1.2,1.2V67c0,0.7,0.5,1.2,1.2,1.2h48.8C58,68.2,58.5,67.7,58.5,67   z M56.1,65.8H9.8v-24h46.3V65.8z"/></g><text x="0" y="115" fill="#000000" font-size="5px" font-weight="bold" font-family="'Helvetica Neue', Helvetica, Arial-Unicode, Arial, Sans-serif">Created by Stepan Voevodin</text><text x="0" y="120" fill="#000000" font-size="5px" font-weight="bold" font-family="'Helvetica Neue', Helvetica, Arial-Unicode, Arial, Sans-serif">from the Noun Project</text></svg>