<?xml version="1.0" standalone="no"?>
<!DOCTYPE svg PUBLIC "-//W3C//DTD SVG 20010904//EN"
 "http://www.w3.org/TR/2001/REC-SVG-20010904/DTD/svg10.dtd">
<svg version="1.0" xmlns="http://www.w3.org/2000/svg"
 width="512.000000pt" height="512.000000pt" viewBox="0 0 512.000000 512.000000"
 preserveAspectRatio="xMidYMid meet">
<metadata>
Created by potrace 1.15, written by Peter Selinger 2001-2017
</metadata>
<g transform="translate(0.000000,512.000000) scale(0.100000,-0.100000)"
fill="#000000" stroke="none">
<path d="M2228 5105 c-574 -79 -1082 -328 -1483 -730 -352 -351 -597 -804
-695 -1282 -69 -331 -68 -731 0 -1060 202 -971 971 -1751 1940 -1967 364 -81
766 -81 1130 0 681 152 1284 591 1641 1196 236 398 352 828 352 1303 0 301
-38 538 -129 812 -311 936 -1120 1599 -2107 1728 -146 19 -510 19 -649 0z
m592 -460 c208 -28 374 -73 558 -152 687 -293 1169 -936 1262 -1683 15 -122
12 -407 -5 -528 -66 -463 -268 -867 -599 -1198 -344 -344 -766 -548 -1250
-605 -144 -17 -462 -7 -602 20 -818 154 -1469 766 -1664 1563 -49 200 -63 334
-57 558 5 207 18 301 67 486 214 812 913 1426 1750 1538 139 18 409 19 540 1z"/>
<path d="M2204 4355 c-524 -80 -953 -385 -1181 -840 -51 -100 -116 -262 -111
-276 2 -5 31 33 64 84 228 343 573 584 949 662 38 8 72 11 76 7 3 -4 49 -204
102 -444 l97 -437 -89 -88 c-73 -73 -95 -102 -129 -173 -52 -110 -66 -173 -65
-290 1 -181 57 -314 188 -446 89 -90 176 -141 292 -172 l66 -17 34 -149 c18
-82 34 -150 35 -152 2 -1 642 231 710 258 4 2 -31 72 -77 157 l-83 154 28 46
c131 213 109 523 -51 723 -116 145 -269 225 -466 244 l-72 7 -217 394 c-119
217 -213 397 -209 401 13 14 270 5 360 -12 218 -41 442 -137 606 -260 112 -85
251 -231 329 -347 153 -230 256 -535 276 -823 l7 -96 353 0 354 0 0 58 c0 32
-5 96 -10 142 -106 877 -702 1511 -1575 1677 -113 21 -472 26 -591 8z"/>
</g>
</svg>
